<svg width="63" height="104" viewBox="0 0 63 104" fill="none" xmlns="http://www.w3.org/2000/svg">
<path fill-rule="evenodd" clip-rule="evenodd" d="M42.0135 5.67009C42.0135 8.80084 39.4742 11.3402 36.3434 11.3402C33.2127 11.3402 30.6733 8.80084 30.6733 5.67009C30.6733 2.53934 33.2127 0 36.3434 0C39.4742 0 42.0135 2.53934 42.0135 5.67009ZM62.0184 39.6532V39.6719C62.2437 51.7209 52.7107 67.2291 35.2263 69.4071C18.6244 71.4723 3.36493 59.9444 1.08375 43.5208C0.511108 39.4279 0.797429 35.5273 1.69394 31.946C1.70261 31.8968 1.71484 31.8477 1.72733 31.7975L1.72734 31.7975C1.73515 31.7661 1.74305 31.7344 1.75027 31.7019C1.75496 31.6925 1.75965 31.669 1.75965 31.669C2.13985 30.214 2.61862 28.8105 3.18187 27.4634C6.42527 20.2913 12.269 18.0758 12.4849 17.996C6.37364 25.9614 4.84816 35.2504 9.43399 45.8771C11.3819 50.3925 14.1278 54.0396 17.5495 56.7104C18.3569 57.344 19.2064 57.9214 20.0936 58.4424C18.155 56.6353 16.484 54.4808 15.1792 52.0166C15.0806 51.8288 14.982 51.6411 14.8882 51.4533C14.8225 51.3266 14.7614 51.1999 14.7051 51.0731C14.6535 50.9699 14.6018 50.8619 14.5596 50.7587C14.5127 50.6695 14.4751 50.5803 14.4376 50.4911C14.1982 49.956 13.9776 49.4209 13.7851 48.8764C13.6772 48.5807 13.5786 48.2803 13.4847 47.9846C13.4331 47.8344 13.3862 47.6889 13.3439 47.5387C13.3093 47.4311 13.2779 47.3204 13.247 47.2117L13.247 47.2116L13.2266 47.1397C13.0482 46.5014 12.8933 45.8583 12.7666 45.2153C11.7715 40.146 12.4192 34.9641 14.4798 30.3829C14.481 30.3805 14.4823 30.3783 14.4834 30.3764L14.4849 30.374C14.4874 30.37 14.4892 30.3671 14.4892 30.3642C15.0712 28.8387 15.8175 27.3554 16.7281 25.9285C16.8455 25.7455 16.9675 25.5624 17.0942 25.3794C17.1435 25.309 17.1916 25.2398 17.2397 25.1706L17.2404 25.1695L17.2405 25.1694C17.2883 25.1006 17.3362 25.0317 17.3853 24.9616C17.4131 24.9212 17.4423 24.8821 17.4721 24.8421L17.4721 24.842C17.4976 24.8079 17.5236 24.7731 17.5495 24.7363C17.5761 24.7003 17.6022 24.6644 17.6283 24.6284C17.6804 24.5564 17.7326 24.4844 17.7889 24.4124C17.8052 24.3863 17.8238 24.3625 17.8431 24.3377L17.8432 24.3376L17.8435 24.3372C17.8518 24.3266 17.8603 24.3157 17.8687 24.3045C17.9814 24.1543 18.0987 24.0041 18.2161 23.8586C26.003 14.058 40.0515 11.6454 50.697 18.4748L50.6971 18.4749L50.6972 18.4749L50.6973 18.475C50.8756 18.5923 51.0539 18.7096 51.2274 18.8268C51.3448 18.9066 51.4621 18.9864 51.5748 19.0709L51.5748 19.071L51.5749 19.071L51.5749 19.071C51.6687 19.1367 51.7626 19.2024 51.8564 19.2728L51.8565 19.2728C51.9363 19.3291 52.016 19.3854 52.0911 19.4464C52.5605 19.7891 53.0158 20.1505 53.4523 20.5307C53.6917 20.7372 53.9217 20.9437 54.1517 21.1597C54.2689 21.2675 54.3814 21.3753 54.4939 21.4831L54.4943 21.4835C54.5975 21.582 54.6913 21.6758 54.7898 21.7743L54.79 21.7745C59.5917 26.5481 62.1029 33.0068 62.0137 39.5358C62.0184 39.5733 62.0184 39.6155 62.0184 39.6531V39.6532ZM17.7655 40.498C17.7655 51.3641 26.5757 60.1744 37.4418 60.1744C48.3126 60.1744 57.1181 51.3641 57.1181 40.498C57.1181 29.6319 48.3079 20.8217 37.4418 20.8217C26.5757 20.8217 17.7655 29.6319 17.7655 40.498ZM47.7165 27.0452H27.2516V33.5884H47.7165V27.0452ZM47.7165 45.4402H33.7102V53.9501H27.1671V38.9675H27.2516V38.8971H47.7165V45.4402Z" fill="#009DCD"/>
<mask id="mask0_1_605" style="mask-type:alpha" maskUnits="userSpaceOnUse" x="0" y="0" width="63" height="70">
<path fill-rule="evenodd" clip-rule="evenodd" d="M42.0135 5.67009C42.0135 8.80084 39.4742 11.3402 36.3434 11.3402C33.2127 11.3402 30.6733 8.80084 30.6733 5.67009C30.6733 2.53934 33.2127 0 36.3434 0C39.4742 0 42.0135 2.53934 42.0135 5.67009ZM62.0184 39.6532V39.6719C62.2437 51.7209 52.7107 67.2291 35.2263 69.4071C18.6244 71.4723 3.36493 59.9444 1.08375 43.5208C0.511108 39.4279 0.797429 35.5273 1.69394 31.946C1.70261 31.8968 1.71484 31.8477 1.72733 31.7975L1.72734 31.7975C1.73515 31.7661 1.74305 31.7344 1.75027 31.7019C1.75496 31.6925 1.75965 31.669 1.75965 31.669C2.13985 30.214 2.61862 28.8105 3.18187 27.4634C6.42527 20.2913 12.269 18.0758 12.4849 17.996C6.37364 25.9614 4.84816 35.2504 9.43399 45.8771C11.3819 50.3925 14.1278 54.0396 17.5495 56.7104C18.3569 57.344 19.2064 57.9214 20.0936 58.4424C18.155 56.6353 16.484 54.4808 15.1792 52.0166C15.0806 51.8288 14.982 51.6411 14.8882 51.4533C14.8225 51.3266 14.7614 51.1999 14.7051 51.0731C14.6535 50.9699 14.6018 50.8619 14.5596 50.7587C14.5127 50.6695 14.4751 50.5803 14.4376 50.4911C14.1982 49.956 13.9776 49.4209 13.7851 48.8764C13.6772 48.5807 13.5786 48.2803 13.4847 47.9846C13.4331 47.8344 13.3862 47.6889 13.3439 47.5387C13.3093 47.4311 13.2779 47.3204 13.247 47.2117L13.247 47.2116L13.2266 47.1397C13.0482 46.5014 12.8933 45.8583 12.7666 45.2153C11.7715 40.146 12.4192 34.9641 14.4798 30.3829C14.481 30.3805 14.4823 30.3783 14.4834 30.3764L14.4849 30.374C14.4874 30.37 14.4892 30.3671 14.4892 30.3642C15.0712 28.8387 15.8175 27.3554 16.7281 25.9285C16.8455 25.7455 16.9675 25.5624 17.0942 25.3794C17.1435 25.309 17.1916 25.2398 17.2397 25.1706L17.2404 25.1695L17.2405 25.1694C17.2883 25.1006 17.3362 25.0317 17.3853 24.9616C17.4131 24.9212 17.4423 24.8821 17.4721 24.8421L17.4721 24.842C17.4976 24.8079 17.5236 24.7731 17.5495 24.7363C17.5761 24.7003 17.6022 24.6644 17.6283 24.6284C17.6804 24.5564 17.7326 24.4844 17.7889 24.4124C17.8052 24.3863 17.8238 24.3625 17.8431 24.3377L17.8432 24.3376L17.8435 24.3372C17.8518 24.3266 17.8603 24.3157 17.8687 24.3045C17.9814 24.1543 18.0987 24.0041 18.2161 23.8586C26.003 14.058 40.0515 11.6454 50.697 18.4748L50.6971 18.4749L50.6972 18.4749L50.6973 18.475C50.8756 18.5923 51.0539 18.7096 51.2274 18.8268C51.3448 18.9066 51.4621 18.9864 51.5748 19.0709L51.5748 19.071L51.5749 19.071L51.5749 19.071C51.6687 19.1367 51.7626 19.2024 51.8564 19.2728L51.8565 19.2728C51.9363 19.3291 52.016 19.3854 52.0911 19.4464C52.5605 19.7891 53.0158 20.1505 53.4523 20.5307C53.6917 20.7372 53.9217 20.9437 54.1517 21.1597C54.2689 21.2675 54.3814 21.3753 54.4939 21.4831L54.4943 21.4835C54.5975 21.582 54.6913 21.6758 54.7898 21.7743L54.79 21.7745C59.5917 26.5481 62.1029 33.0068 62.0137 39.5358C62.0184 39.5733 62.0184 39.6155 62.0184 39.6531V39.6532ZM17.7655 40.498C17.7655 51.3641 26.5757 60.1744 37.4418 60.1744C48.3126 60.1744 57.1181 51.3641 57.1181 40.498C57.1181 29.6319 48.3079 20.8217 37.4418 20.8217C26.5757 20.8217 17.7655 29.6319 17.7655 40.498ZM47.7165 27.0452H27.2516V33.5884H47.7165V27.0452ZM47.7165 45.4402H33.7102V53.9501H27.1671V38.9675H27.2516V38.8971H47.7165V45.4402Z" fill="#009DCD"/>
</mask>
<g mask="url(#mask0_1_605)">
<ellipse cx="81.3093" cy="42.7216" rx="43.1156" ry="75.7969" fill="white" fill-opacity="0.16" style="mix-blend-mode:overlay"/>
</g>
<path fill-rule="evenodd" clip-rule="evenodd" d="M18.1502 93.8172C18.6644 94.3149 19.0659 94.9054 19.3512 95.5888C19.6365 96.2689 19.7791 96.9954 19.7791 97.785C19.7791 98.5746 19.6365 99.3111 19.3512 99.9879C19.0625 100.668 18.6644 101.258 18.1502 101.759C17.636 102.26 17.0256 102.652 16.3156 102.937C15.6057 103.222 14.8261 103.365 13.9701 103.365C13.1142 103.365 12.3313 103.219 11.6246 102.937C10.9147 102.655 10.3043 102.26 9.79003 101.759C9.27582 101.258 8.87439 100.668 8.58909 99.9879C8.30378 99.3111 8.16112 98.568 8.16112 97.785C8.16112 97.0021 8.30378 96.2722 8.58909 95.5888C8.87439 94.9054 9.27582 94.3149 9.79003 93.8172C10.3043 93.3229 10.9147 92.9281 11.6246 92.6395C12.3346 92.3509 13.1142 92.2082 13.9701 92.2082C14.8261 92.2082 15.609 92.3509 16.3156 92.6395C17.0256 92.9281 17.636 93.3196 18.1502 93.8172ZM16.6208 100.512C16.9526 100.184 17.2114 99.7888 17.4005 99.3277C17.5896 98.8632 17.6824 98.3523 17.6824 97.7817C17.6824 97.2111 17.5896 96.6969 17.4005 96.2357C17.2114 95.7746 16.9526 95.3798 16.6208 95.0481C16.2858 94.7196 15.8976 94.4675 15.4464 94.2883C14.9952 94.1125 14.4943 94.0229 13.9701 94.0229C13.446 94.0229 12.9583 94.1125 12.5071 94.2883C12.0526 94.4675 11.6644 94.7196 11.3327 95.0481C11.0043 95.3798 10.7422 95.7746 10.5531 96.2357C10.364 96.7002 10.2711 97.2111 10.2711 97.7817C10.2711 98.3523 10.3673 98.8665 10.5531 99.3277C10.7422 99.7888 11.0009 100.184 11.3327 100.512C11.6644 100.84 12.0559 101.093 12.5071 101.272C12.9583 101.448 13.436 101.537 13.9701 101.537C14.5043 101.537 14.9952 101.448 15.4464 101.272C15.8976 101.093 16.2891 100.84 16.6208 100.512ZM27.2469 97.2675C27.6682 97.4466 28.0332 97.6689 28.345 97.9343L28.3483 97.931C28.6635 98.1964 28.909 98.5116 29.0948 98.8765C29.2772 99.2381 29.3701 99.6627 29.3701 100.14C29.3701 100.661 29.2573 101.126 29.0317 101.524C28.8061 101.922 28.4976 102.257 28.1061 102.529C27.7147 102.801 27.2469 103.007 26.7061 103.149C26.1654 103.292 25.5749 103.362 24.9412 103.362C24.5564 103.362 24.1682 103.339 23.7768 103.289C23.3853 103.239 23.0104 103.173 22.6521 103.09C22.2905 103.007 21.9554 102.904 21.6436 102.791C21.3317 102.678 21.0564 102.549 20.8175 102.406L21.6038 100.714C21.7962 100.837 22.0218 100.95 22.2806 101.053C22.536 101.156 22.8114 101.242 23.1 101.312C23.3886 101.381 23.6872 101.441 23.9891 101.484C24.291 101.527 24.5896 101.55 24.8848 101.55C25.2265 101.55 25.5417 101.524 25.8303 101.471C26.1223 101.418 26.3711 101.335 26.5834 101.219C26.7957 101.106 26.9649 100.957 27.0877 100.774C27.2104 100.592 27.2734 100.376 27.2734 100.127C27.2734 99.9049 27.2204 99.7125 27.1208 99.5533C27.018 99.394 26.8753 99.258 26.6929 99.1419C26.5071 99.0291 26.2848 98.9296 26.0227 98.85C25.7606 98.7703 25.4687 98.6907 25.1469 98.6111L24.2213 98.3855C23.2028 98.1466 22.4332 97.7518 21.9189 97.2011C21.4047 96.6504 21.146 95.9736 21.146 95.1642C21.146 94.7296 21.2422 94.3315 21.4346 93.9665C21.627 93.6016 21.9024 93.2898 22.2606 93.0277C22.6189 92.7656 23.0469 92.5632 23.5445 92.4206C24.0422 92.2779 24.5929 92.2082 25.2 92.2082C25.5483 92.2082 25.9033 92.2315 26.2682 92.2812C26.6298 92.331 26.9815 92.3973 27.3232 92.4869C27.6616 92.5732 27.9867 92.676 28.2952 92.7921C28.6038 92.9049 28.8758 93.0343 29.1147 93.177L28.3284 94.8689C27.9137 94.6101 27.4227 94.4078 26.8521 94.2552C26.2815 94.1059 25.7242 94.0296 25.1834 94.0296C24.9147 94.0296 24.6625 94.0528 24.4237 94.1026C24.1848 94.149 23.9725 94.2253 23.79 94.3215C23.6042 94.4177 23.4616 94.5405 23.3554 94.6864C23.2493 94.8357 23.1962 95.0049 23.1962 95.2007C23.1962 95.5556 23.3355 95.8409 23.6175 96.0533C23.8995 96.2689 24.3507 96.4514 24.9777 96.6007L25.9166 96.8263C26.3843 96.9424 26.8289 97.0883 27.2469 97.2675ZM38.4137 97.9343C38.1019 97.6689 37.737 97.4466 37.3156 97.2675C36.8976 97.0883 36.4531 96.9424 35.9853 96.8263L35.0464 96.6007C34.4194 96.4514 33.9682 96.2689 33.6863 96.0533C33.4043 95.8409 33.2649 95.5556 33.2649 95.2007C33.2649 95.0049 33.318 94.8357 33.4242 94.6864C33.5303 94.5405 33.673 94.4177 33.8588 94.3215C34.0412 94.2253 34.2536 94.149 34.4924 94.1026C34.7313 94.0528 34.9834 94.0296 35.2521 94.0296C35.7929 94.0296 36.3502 94.1059 36.9209 94.2552C37.4915 94.4078 37.9825 94.6101 38.3972 94.8689L39.1834 93.177C38.9445 93.0343 38.6725 92.9049 38.364 92.7921C38.0555 92.676 37.7303 92.5732 37.3919 92.4869C37.0502 92.3973 36.6986 92.331 36.337 92.2812C35.972 92.2315 35.6171 92.2082 35.2687 92.2082C34.6616 92.2082 34.1109 92.2779 33.6133 92.4206C33.1156 92.5632 32.6877 92.7656 32.3294 93.0277C31.9711 93.2898 31.6957 93.6016 31.5033 93.9665C31.3109 94.3315 31.2147 94.7296 31.2147 95.1642C31.2147 95.9736 31.4735 96.6504 31.9877 97.2011C32.5019 97.7518 33.2716 98.1466 34.2901 98.3855L35.2156 98.6111C35.5374 98.6907 35.8294 98.7703 36.0915 98.85C36.3536 98.9296 36.5758 99.0291 36.7616 99.1419C36.9441 99.258 37.0867 99.394 37.1896 99.5533C37.2891 99.7125 37.3422 99.9049 37.3422 100.127C37.3422 100.376 37.2791 100.592 37.1564 100.774C37.0336 100.957 36.8645 101.106 36.6521 101.219C36.4398 101.335 36.191 101.418 35.8991 101.471C35.6104 101.524 35.2953 101.55 34.9536 101.55C34.6583 101.55 34.3597 101.527 34.0578 101.484C33.7559 101.441 33.4573 101.381 33.1687 101.312C32.8801 101.242 32.6047 101.156 32.3493 101.053C32.0905 100.95 31.8649 100.837 31.6725 100.714L30.8863 102.406C31.1251 102.549 31.4005 102.678 31.7123 102.791C32.0242 102.904 32.3592 103.007 32.7209 103.09C33.0791 103.173 33.454 103.239 33.8455 103.289C34.237 103.339 34.6251 103.362 35.01 103.362C35.6436 103.362 36.2341 103.292 36.7749 103.149C37.3156 103.007 37.7834 102.801 38.1749 102.529C38.5663 102.257 38.8749 101.922 39.1005 101.524C39.3261 101.126 39.4389 100.661 39.4389 100.14C39.4389 99.6627 39.346 99.2381 39.1635 98.8765C38.9777 98.5116 38.7322 98.1964 38.4171 97.931L38.4137 97.9343ZM1.9872 103.342H0V92.54H7.1327V94.3249H1.9872V96.8959H6.63507V98.7073H1.9872V103.342ZM48.9237 96.8959H43.5592V92.54H41.572V103.342H43.5592V98.7073H48.9237V103.342H50.9242V92.54H48.9237V96.8959ZM56.4446 92.54H58.8564H58.863L63 103.339H60.9166L59.9645 100.797H55.3299L54.391 103.339H52.3076L56.4446 92.54ZM57.6422 94.5106L55.9867 98.9993H59.2976L57.6422 94.5106Z" fill="#000F41"/>
<path d="M57.6279 74.6788C56.7909 74.6788 56.3432 74.2185 56.3432 73.3778C56.3432 72.5171 56.7909 72.0568 57.6279 72.0568C58.4648 72.0568 58.9125 72.5171 58.9125 73.3778C58.9125 74.2185 58.4648 74.6788 57.6279 74.6788ZM57.6279 76.8805C60.7422 76.8805 63 79.1223 63 82.1446V86.468C63 86.9084 62.747 87.1486 62.3188 87.1486H50.6596L50.173 86.6482V85.4072L50.6596 84.9068H53.3846C52.6839 84.1462 52.2751 83.1454 52.2751 81.9445C52.2751 79.0622 54.533 76.8805 57.6279 76.8805ZM54.786 82.0646C54.786 83.5257 55.8761 84.8868 57.6279 84.9068H60.4891V82.1446C60.4891 80.4233 59.2823 79.1223 57.6279 79.1223C55.9928 79.1223 54.786 80.3432 54.786 82.0646Z" fill="#000F41"/>
<path d="M50.3566 84.907H50.668L51.1351 85.4074V86.6484L50.668 87.1488H50.3955C49.0719 87.1488 48.0598 86.6884 47.5732 85.4074C46.8724 86.6684 45.7046 87.409 44.0112 87.409C42.6292 87.409 41.5586 86.8886 40.9163 85.9278C40.1961 86.9286 39.0283 87.409 37.6074 87.409C36.3227 87.409 35.2911 86.9686 34.6877 86.0279C34.0064 86.7685 33.0332 87.1488 31.8653 87.1488H30.678L30.1914 86.6484V85.4074L30.678 84.907H31.3009C32.3714 84.907 33.0137 84.2665 33.0137 82.9855V79.5628C33.0137 79.1225 33.2668 78.8623 33.7145 78.8623H34.9018C35.33 78.8623 35.5831 79.1225 35.5831 79.5628V83.1456C35.5831 84.6268 36.2838 85.3073 37.3738 85.3073C38.5222 85.3073 39.1645 84.5667 39.1645 83.2857V79.5628C39.1645 79.1225 39.4175 78.8623 39.8458 78.8623H41.0331C41.4613 78.8623 41.7144 79.1225 41.7144 79.5628V82.8054C41.7144 84.3065 42.4151 85.3073 43.8165 85.3073C45.2958 85.3073 45.9576 84.1865 45.9576 82.0248V77.7814C45.9576 77.3411 46.2106 77.0809 46.6389 77.0809H47.8457C48.2739 77.0809 48.5269 77.3411 48.5269 77.7814L48.5074 82.7854C48.5074 84.2865 49.1108 84.907 50.3566 84.907Z" fill="#000F41"/>
<path d="M30.6738 87.1485H18.0414L17.5548 86.6481V85.4072L18.0414 84.9068H26.7615C26.2943 84.4864 26.1581 83.6458 26.1581 82.4048V81.5041C26.1581 79.7227 24.9318 78.9821 23.4525 78.9821C22.382 78.9821 21.3504 79.1022 19.9879 79.5826C19.6375 79.6827 19.4429 79.6026 19.4429 79.2223V78.1815C19.4429 77.8613 19.5791 77.561 19.9879 77.4209C21.2531 76.9606 22.3625 76.8805 23.4525 76.8805C25.9829 76.8805 28.5133 77.9814 28.5133 81.5041V82.4048C28.5133 83.6258 28.5911 84.9068 29.9537 84.9068H30.6738L31.141 85.4072V86.6481L30.6738 87.1485Z" fill="#000F41"/>
<path d="M18.035 87.1487H12.9548L12.4681 86.6483V85.4073L12.9548 84.9069H18.035L18.5216 85.4073V86.6483L18.035 87.1487Z" fill="#000F41"/>
<path d="M12.2431 84.9064H12.9439L13.411 85.4068V86.6478L12.9439 87.1482H11.6592C10.0826 87.1482 8.91471 86.5077 8.35024 85.3067C7.78577 85.687 7.16291 85.9873 6.46219 86.1474C3.34788 86.928 0 85.4468 0 81.2636C0 78.2612 2.27734 76.0395 5.33326 75.9995H9.82954C10.2578 75.9995 10.5108 76.2597 10.5108 76.7V82.9849C10.5108 84.2659 10.9585 84.9064 12.2431 84.9064ZM6.18969 83.9857C6.81255 83.8256 7.41595 83.5253 7.96095 83.105V78.2412H5.37218C3.73717 78.2412 2.51091 79.5422 2.51091 81.2636C2.51091 83.5654 4.24325 84.5061 6.18969 83.9857Z" fill="#000F41"/>
</svg>
